<svg height="30" viewBox="0 0 59 19" fill="none" aria-label="Gopuff" role="img" data-testid="GopuffLogo"><g fill="#FFFFFF"><path d="M41.021 4.68003V10.267C41.021 11.713 40.5462 12.5734 39.4311 12.5734C38.3215 12.5734 37.8413 11.713 37.8413 10.267V4.68003H34.6776V10.4795C34.6776 13.5166 36.5769 14.7709 39.4258 14.7709C41.7786 14.7709 44.174 13.5166 44.174 10.4795V4.68003C44.1793 4.68003 41.021 4.68003 41.021 4.68003ZM16.9387 4.45717C13.6737 4.45717 11.5076 6.50436 11.5076 9.68658C11.5076 12.8792 13.8017 14.7709 16.752 14.7709C19.4728 14.7709 22.1137 13.1227 22.1137 9.51555C22.1137 6.54064 20.049 4.45717 16.9387 4.45717ZM16.8427 12.5889C15.4929 12.5889 14.7673 11.314 14.7673 9.6192C14.7673 8.15248 15.3435 6.64948 16.8533 6.64948C18.2831 6.64948 18.8593 8.15248 18.8593 9.60884C18.8646 11.3917 18.0804 12.5889 16.8427 12.5889ZM9.25626 3.98554C8.19459 4.6904 7.91717 5.76841 7.91717 5.76841C7.34099 5.06356 6.15128 4.50382 4.75884 4.50382C2.43277 4.50382 0 6.51991 0 9.70213C0 12.5267 2.05398 14.6983 4.75884 14.6983C5.87919 14.6983 6.63677 14.4288 7.23962 13.8483V14.0608C7.23962 15.8541 6.09793 16.6574 4.59879 16.6574C3.13166 16.6574 2.09666 16.1858 1.45113 15.8282L0.826928 18.1604C1.66986 18.5854 3.33972 19 4.67881 19C6.17796 19 7.68777 18.7201 8.79212 17.7924C9.94448 16.8077 10.3393 15.2477 10.3393 13.356V8.98691C10.3606 7.47354 10.9155 6.41107 11.5983 5.65957C11.5983 5.65439 9.25626 3.98554 9.25626 3.98554ZM5.34036 12.62C3.9906 12.62 3.26503 11.3451 3.26503 9.6503C3.26503 8.18358 3.84122 6.68058 5.35103 6.68058C6.77014 6.69094 7.34632 8.18358 7.34632 9.63993C7.34632 11.4228 6.57275 12.62 5.34036 12.62ZM28.3983 4.45717C25.0106 4.45717 23.1647 6.63912 23.1647 9.86798V18.7823H26.323V13.9002C26.8885 14.4703 27.7901 14.7864 28.9958 14.7864C31.2579 14.7864 33.6213 13.0968 33.6213 9.5C33.6213 6.33852 31.4766 4.45717 28.3983 4.45717ZM28.3876 12.5889C27.0379 12.5889 26.3123 11.314 26.3123 9.6192C26.3123 8.15248 26.8885 6.64948 28.3983 6.64948C29.8281 6.64948 30.4043 8.15248 30.4043 9.60884C30.3883 11.3917 29.62 12.5889 28.3876 12.5889ZM58.9893 2.57583V0.222859C58.5519 0.0984725 58.0077 0.0103655 57.3195 0.0103655C56.3965 0.0103655 55.3028 0.269504 54.5079 0.99509C53.6063 1.81397 53.2275 3.1252 53.2275 4.29651V4.66448H49.9625V4.16694C49.9145 1.78287 52.3152 2.47736 52.5926 2.56547V0.212493C52.1498 0.0881069 51.6057 0 50.9174 0C49.9945 0 48.9008 0.259138 48.1059 0.984724C47.2043 1.8036 46.8255 3.10966 46.8255 4.28614V4.65412H45.4757V6.91899H46.8255V14.548C46.8255 16.6418 45.3263 16.3412 44.6595 16.2376L44.3234 18.5025C44.6435 18.6268 45.1556 18.7512 45.6731 18.7512C47.1029 18.7616 48.1166 18.3366 48.7994 17.6888C49.653 16.8699 49.9785 15.6934 49.9785 14.5273L49.9998 6.92417H53.2382V14.5532C53.2862 16.761 51.5096 16.3101 51.0722 16.2428L50.7361 18.5076C51.0562 18.632 51.5683 18.7564 52.0858 18.7564C53.5156 18.7668 54.5293 18.3418 55.2121 17.6939C56.0657 16.8751 56.3858 15.6986 56.3858 14.5325L56.4072 6.92935H59V4.68003H56.3698V4.17731C56.4019 1.76732 58.7119 2.49809 58.9893 2.57583Z"></path></g></svg>